<svg width="42" height="42" viewBox="0 0 42 42" fill="none" xmlns="http://www.w3.org/2000/svg">
<path d="M25.4823 30.306C25.4823 31.6379 26.5621 32.7176 27.8939 32.7176M27.8939 32.7176C29.2258 32.7176 30.3056 31.6379 30.3056 30.306C30.3056 28.9741 29.2258 27.8944 27.8939 27.8944C26.5621 27.8944 25.4823 26.8147 25.4823 25.4827C25.4823 24.1509 26.5621 23.0711 27.8939 23.0711M27.8939 32.7176L27.894 34.6932M27.8939 23.0711C29.2258 23.0711 30.3056 24.1347 30.3056 25.4667M27.8939 23.0711V21.0184M25.4824 7.23484C25.4824 10.5645 20.0839 13.2639 13.4244 13.2639C6.76489 13.2639 1.20557 10.5645 1.20557 7.23484M25.4824 7.23484C25.4824 3.90513 20.0839 1.20581 13.4244 1.20581C6.76489 1.20581 1.20557 3.90513 1.20557 7.23484M25.4824 7.23484L25.4823 16.0774M1.20557 7.23484V29.1001C1.20557 32.4298 6.76489 35.1291 13.4244 35.1291C15.0189 35.1291 16.5411 34.9743 17.9343 34.6932M18.742 20.0431C17.1379 20.4378 15.3329 20.6595 13.4244 20.6595C6.76489 20.6595 1.20557 17.9602 1.20557 14.6305M15.8366 27.7737C15.0572 27.8528 14.2505 27.8943 13.4244 27.8943C6.76489 27.8943 1.20557 25.195 1.20557 21.8653M39.952 27.8943C39.952 34.5538 34.5535 39.9523 27.894 39.9523C21.2345 39.9523 15.8359 34.5538 15.8359 27.8943C15.8359 21.2348 21.2345 15.8362 27.894 15.8362C34.5535 15.8362 39.952 21.2348 39.952 27.8943Z" stroke="#8AFFF5" stroke-width="2.41161" stroke-miterlimit="10" stroke-linecap="round"/>
</svg>
