<svg width="41" height="41" viewBox="0 0 41 41" fill="none" xmlns="http://www.w3.org/2000/svg">
<path d="M20.498 33.7169V30.4121" stroke="#8AFFF5" stroke-width="2" stroke-miterlimit="10" stroke-linecap="round" stroke-linejoin="round"/>
<path d="M20.498 17.1932V13.8884" stroke="#8AFFF5" stroke-width="2" stroke-miterlimit="10" stroke-linecap="round" stroke-linejoin="round"/>
<path d="M20.4977 23.8027C22.3227 23.8027 23.8024 25.2821 23.8024 27.1075C23.8024 28.9325 22.323 30.4122 20.4977 30.4122C19.3022 30.4122 18.2209 29.7723 17.6353 28.7602" stroke="#8AFFF5" stroke-width="2" stroke-miterlimit="10" stroke-linecap="round" stroke-linejoin="round"/>
<path d="M20.4981 23.8026C18.6693 23.8026 17.1934 22.3202 17.1934 20.4979C17.1934 18.6691 18.6758 17.1931 20.4981 17.1931C21.6936 17.1931 22.7749 17.8331 23.3605 18.8452" stroke="#8AFFF5" stroke-width="2" stroke-miterlimit="10" stroke-linecap="round" stroke-linejoin="round"/>
<path d="M4.30475 39.996C2.47962 39.996 1 38.5164 1 36.6912V33.3865H7.60949V36.6912C7.60949 38.5164 6.12988 39.996 4.30475 39.996Z" stroke="#8AFFF5" stroke-width="2" stroke-miterlimit="10" stroke-linecap="round" stroke-linejoin="round"/>
<path d="M33.3865 7.60938V36.6911C33.3865 38.5163 31.9068 39.9959 30.0817 39.9959H4.30469" stroke="#8AFFF5" stroke-width="2" stroke-miterlimit="10" stroke-linecap="round" stroke-linejoin="round"/>
<path d="M7.60938 36.6912V5.95703" stroke="#8AFFF5" stroke-width="2" stroke-miterlimit="10" stroke-linecap="round" stroke-linejoin="round"/>
<path d="M12.5665 1H36.6911C38.5161 1 39.9959 2.4792 39.9959 4.30417V7.60949H17.5235L17.5236 5.95712C17.5236 3.21939 15.3042 1 12.5665 1ZM12.5665 1C9.82876 1 7.60938 3.21939 7.60938 5.95712V7.60949" stroke="#8AFFF5" stroke-width="2" stroke-miterlimit="10" stroke-linecap="round" stroke-linejoin="round"/>
</svg>
