<svg width="37" height="49" viewBox="0 0 37 49" fill="none" xmlns="http://www.w3.org/2000/svg">
<path d="M18.23 12.6781C8.71417 12.6781 1 20.3923 1 29.9082C1 39.424 8.71417 47.1382 18.23 47.1382C27.7459 47.1382 35.46 39.424 35.46 29.9082C35.46 20.3923 27.7459 12.6781 18.23 12.6781ZM18.23 12.6781L18.23 6.74335M18.23 18.4215C11.8964 18.4215 6.74334 23.5745 6.74334 29.9082C6.74334 36.2418 11.8964 41.3948 18.23 41.3948C24.5637 41.3948 29.7167 36.2418 29.7167 29.9082M18.23 18.4215C24.5637 18.4215 29.7167 23.5745 29.7167 29.9082M18.23 18.4215L18.23 29.9082H29.7167M5.10963 18.7394L1.26312 14.1555L5.66281 10.4636L9.50769 15.0458M26.9524 15.0458L30.7973 10.4636L35.1968 14.1555L31.3504 18.7394M21.1017 6.74334H15.3584C13.7724 6.74334 12.4867 5.4576 12.4867 3.87167C12.4867 2.28574 13.7724 1 15.3584 1H21.1017C22.6876 1 23.9734 2.28574 23.9734 3.87167C23.9734 5.4576 22.6876 6.74334 21.1017 6.74334Z" stroke="#8AFFF5" stroke-width="2" stroke-miterlimit="10" stroke-linecap="round" stroke-linejoin="round"/>
</svg>
